<?xml version="1.0" standalone="no"?>
<!DOCTYPE svg PUBLIC "-//W3C//DTD SVG 20010904//EN"
 "http://www.w3.org/TR/2001/REC-SVG-20010904/DTD/svg10.dtd">
<svg version="1.0" xmlns="http://www.w3.org/2000/svg"
 width="186.000000pt" height="65.000000pt" viewBox="0 0 186.000000 65.000000"
 preserveAspectRatio="xMidYMid meet">

<g transform="translate(0.000000,65.000000) scale(0.100000,-0.100000)"
fill="#000000" stroke="none">
<path d="M255 548 c-2 -7 -9 -31 -14 -53 -5 -22 -20 -71 -34 -110 -13 -38 -29
-88 -35 -110 -6 -22 -22 -76 -36 -120 -14 -44 -23 -81 -21 -83 1 -2 56 -6 120
-8 112 -5 117 -5 111 14 -9 26 109 412 125 412 5 0 9 16 9 35 l0 35 -110 0
c-80 0 -112 -4 -115 -12z"/>
<path d="M640 535 c0 -14 -4 -33 -9 -43 -5 -9 -19 -51 -31 -92 -33 -115 -102
-310 -112 -316 -22 -14 10 -19 124 -19 l123 0 -3 28 c-2 15 4 41 12 59 9 17
16 39 16 50 0 10 9 26 20 35 12 11 20 30 20 48 0 46 67 246 88 261 14 11 -4
13 -115 14 l-133 0 0 -25z"/>
<path d="M958 528 c2 -21 -8 -63 -27 -113 -17 -44 -31 -87 -31 -95 0 -20 -29
-62 -39 -56 -4 3 -8 -1 -8 -9 0 -17 -5 -17 77 -5 149 21 232 97 213 194 -13
68 -52 99 -139 110 l-50 6 4 -32z"/>
<path d="M1300 531 c0 -17 -4 -33 -10 -36 -5 -3 -10 -15 -10 -27 0 -24 -87
-294 -127 -394 -3 -8 21 -10 79 -9 46 2 101 3 123 4 l40 1 2 44 c1 25 13 68
27 96 14 28 25 54 24 58 -2 7 17 72 62 210 l27 82 -118 0 -119 0 0 -29z"/>
<path d="M1616 536 c4 -18 -49 -197 -81 -270 -8 -18 -5 -19 50 -13 75 8 162
51 192 96 30 44 31 108 2 145 -27 35 -63 52 -121 58 -45 5 -47 4 -42 -16z"/>
</g>
</svg>
